<?xml version="1.0" encoding="UTF-8"?><svg id="Camada_2" xmlns="http://www.w3.org/2000/svg" viewBox="0 0 3990.2 1133.84"><g id="Camada_1-2"><path d="M607.02,804.57c-20.65,36.14-48.01,65.17-82.09,87.11-34.05,21.95-70.19,32.89-108.38,32.89-48.01,0-88.52-16.9-121.56-50.69-33.03-33.82-49.54-86.07-49.54-156.79,0-58.34,15.6-104.91,46.83-139.75,31.23-34.84,73.18-52.27,125.82-52.27,82.57,0,143.22,41.81,181.95,125.42h170.33V346.22h-163.36v61.95c-70.21-49.03-145.85-73.54-226.86-73.54-101.16,0-189.82,34.44-265.93,103.36C38.06,506.88,0,600.96,0,720.2s38.85,214.45,116.54,285.68c77.66,71.23,181.81,106.86,312.4,106.86,173.43,0,294.74-75.49,363.91-226.47l-185.82-81.7Z" style="fill:#fff;"/><path d="M1553.1,923.03v-273.3c0-69.17-4.8-119.1-14.33-149.82-9.56-30.69-25.92-58.96-49.17-84.77-23.22-25.81-58.59-46.85-106.07-63.11-47.51-16.25-107.37-24.37-179.61-24.37-186.35,0-301,56.33-367.77,171.52l123.14,105.62c69.82-115.18,158.43-114.67,212.11-114.67,43.36,0,77.94,3.1,103.76,27.62,25.78,24.52,38.7,55.86,38.7,94.05v45.67c-65.02-25.28-122.6-37.92-172.65-37.92-89.82,0-163.11,24.26-219.9,72.78-56.79,48.52-85.17,108.64-85.17,180.38s26.97,128.02,80.91,170.33c53.94,42.34,118.06,63.5,192.39,63.5s139.89-23.36,204.41-70.07v59.24h360.01v-172.67h-120.77Zm-239.25-43.36c-55.74,52.16-105.82,78.2-150.19,78.2-28.41,0-51.62-9.79-69.71-29.4-18.05-19.63-27.08-43.1-27.08-70.47,0-30.44,11.23-53.68,33.68-69.68,22.45-15.99,47.34-24.01,74.7-24.01,34.58,0,80.79,18.08,138.59,54.19v61.16Z" style="fill:#fff;"/><polygon points="2099.94 923.03 2099.94 346.22 1746.9 346.22 1746.9 518.89 1860.7 518.89 1860.7 923.03 1746.9 923.03 1746.9 1095.7 2211.43 1095.7 2211.43 923.03 2099.94 923.03" style="fill:#fff;"/><path d="M2895.55,334.63c-65.05,0-121.44,20-169.17,60-47.76,40-78.34,87.37-91.74,142.06v-190.47h-349.21v172.67h130.08v404.13h-138.57v172.67h527.24v-172.67h-149.43v-92.13c0-61.92,12.38-115.6,37.18-161.02,46.77-74.22,130.57-110.98,216.32-110.33,0,0,36.99-146.59,142.46-218.47,2.54-1.73,1.33-5.69-1.74-5.7-54.84-.08-153.42-.75-153.42-.75Z" style="fill:#fff;"/><path d="M3645.34,432.54c-75.86-69.93-169.29-104.88-280.26-104.88s-203.76,34.95-279.9,104.88c-76.14,69.96-114.19,165.85-114.19,287.66s38.06,217.7,114.19,287.63c76.14,69.93,169.43,104.91,279.9,104.91,233.18,0,208.05-105,262.41-198.6,45.16-77.69,131.68-95.49,131.68-193.94,0-121.81-37.94-217.7-113.83-287.66Zm-173.04,443.26c-27.62,34.08-63.61,51.12-107.99,51.12-49.57,0-86.6-18.98-111.12-56.93-24.52-37.92-36.79-86.04-36.79-144.38,0-142.46,49.28-213.69,147.9-213.69,45.93,0,82.32,17.94,109.15,53.79,26.85,35.88,40.28,85.81,40.28,149.82,0,72.78-13.82,126.21-41.44,160.26Z" style="fill:#fff;"/><circle cx="1983.07" cy="130.89" r="130.89" style="fill:#fff;"/><path d="M3981.35,955.67c-53.85-133.29-350.62-95.89-276.8,60.68,31.31,74.19,116.85,140.32,199.84,109.93,67.03-24.51,103.84-104.09,76.96-170.61Z" style="fill:#fff;"/></g></svg>