<svg xmlns="http://www.w3.org/2000/svg" viewBox="0 0 3990.2 1133.84"><defs><style>.cls-1{fill:#fff;}</style></defs><g id="Camada_2" data-name="Camada 2"><g id="Camada_1-2" data-name="Camada 1"><path class="cls-1" d="M607,804.57q-31,54.21-82.09,87.12T416.55,924.58q-72,0-121.56-50.69T245.45,717.1q0-87.51,46.83-139.76T418.1,525.07q123.86,0,181.95,125.42H770.38V346.22H607v61.95Q501.7,334.63,380.16,334.63q-151.74,0-265.94,103.36T0,720.2Q0,899,116.54,1005.88t312.39,106.86q260.16,0,363.91-226.47Z"/><path class="cls-1" d="M1553.1,923V649.73q0-103.76-14.33-149.82t-49.18-84.77q-34.81-38.72-106.06-63.11t-179.62-24.37c-186.35,0-301,56.33-367.77,171.51L959.28,604.79c69.82-115.18,158.43-114.67,212.11-114.67,43.36,0,77.94,3.1,103.75,27.62s38.71,55.85,38.71,94v45.67q-97.55-37.9-172.65-37.91-134.73,0-219.89,72.78T836.14,872.7q0,106.84,80.91,170.33t192.39,63.5q107.61,0,204.41-70.07v59.24h360V923Zm-239.25-43.36q-83.62,78.24-150.19,78.2-42.62,0-69.71-29.4T1066.87,858q0-45.64,33.68-69.67a125.79,125.79,0,0,1,74.7-24q51.88,0,138.6,54.19Z"/><polygon class="cls-1" points="2099.94 923.03 2099.94 346.22 1746.9 346.22 1746.9 518.89 1860.7 518.89 1860.7 923.03 1746.9 923.03 1746.9 1095.7 2211.43 1095.7 2211.43 923.03 2099.94 923.03"/><path class="cls-1" d="M2691.93,669.87q70.16-111.33,198.79-110.33l80.18-224.15c-15-.51-64.52-.76-75.35-.76q-97.58,0-169.18,60t-91.74,142.06V346.22H2285.42V518.89H2415.5V923H2276.93V1095.7h527.25V923H2654.75V830.89Q2654.75,738,2691.93,669.87Z"/><path class="cls-1" d="M3645.34,432.54q-113.79-104.9-280.27-104.88-165.71,0-279.9,104.88T2971,720.2q0,182.71,114.19,287.63t279.9,104.91c233.18,0,208-105,262.41-198.6,45.16-77.69,131.68-95.49,131.68-193.94Q3759.16,537.48,3645.34,432.54Zm-173,443.26q-41.43,51.12-108,51.12-74.34,0-111.12-56.93t-36.78-144.37q0-213.69,147.9-213.69,68.89,0,109.15,53.79t40.28,149.82Q3513.74,824.73,3472.3,875.8Z"/><circle class="cls-1" cx="1983.07" cy="130.89" r="130.89"/><path class="cls-1" d="M3981.35,955.67c-53.86-133.29-350.62-95.89-276.8,60.68,31.31,74.19,116.85,140.31,199.84,109.93C3971.42,1101.77,4008.23,1022.19,3981.35,955.67Z"/></g></g></svg>